<svg xmlns="http://www.w3.org/2000/svg" xmlns:xlink="http://www.w3.org/1999/xlink" version="1.1" data-diagram-type="DESCRIPTION" style="width:1218px;height:393px;background:#FFFFFF;" width="1218px" height="393px" viewBox="0 0 1218 393" zoomAndPan="magnify" preserveAspectRatio="none" contentStyleType="text/css"><?plantuml 1.2026.8beta1?><defs/><g font-family="sans-serif" lengthAdjust="spacing"><!--cluster CENTRAL--><g class="cluster" data-qualified-name="CENTRAL" id="ent0008" data-source-line="51"><rect x="217.17" y="117.44" width="437" height="261.81" fill="#FFF" style="stroke:#000;stroke-width:1;"/><text x="391.537" y="130.579" fill="#000" font-size="12" textLength="88.266" font-weight="700" font-family="'Segoe UI'">«subsystem»</text><text x="367.854" y="144.547" fill="#000" font-size="12" textLength="135.633" font-weight="700" font-family="'Segoe UI'">componente central</text></g><!--entity FOCIU--><g class="entity" data-qualified-name="CENTRAL.FOCIU" id="ent0009" data-source-line="52"><rect x="241.39" y="171.44" width="99.541" height="61.906" fill="#FFF" style="stroke:#000;stroke-width:0.5;"/><text x="251.39" y="192.579" fill="#000" font-size="12" textLength="79.541" font-family="'Segoe UI'">«subsystem»</text><text x="251.39" y="206.547" fill="#000" font-size="12" textLength="64.594" font-family="'Segoe UI'">Frontoffice</text><text x="251.39" y="220.516" fill="#000" font-size="12" textLength="70.459" font-family="'Segoe UI'">Ciudadanos</text></g><!--entity FOFUN--><g class="entity" data-qualified-name="CENTRAL.FOFUN" id="ent0010" data-source-line="53"><rect x="376.39" y="171.44" width="99.541" height="61.906" fill="#FFF" style="stroke:#000;stroke-width:0.5;"/><text x="386.39" y="192.579" fill="#000" font-size="12" textLength="79.541" font-family="'Segoe UI'">«subsystem»</text><text x="386.39" y="206.547" fill="#000" font-size="12" textLength="64.594" font-family="'Segoe UI'">Frontoffice</text><text x="386.39" y="220.516" fill="#000" font-size="12" textLength="76.207" font-family="'Segoe UI'">Funcionarios</text></g><!--entity BACK--><g class="entity" data-qualified-name="CENTRAL.BACK" id="ent0011" data-source-line="54"><rect x="511.39" y="178.42" width="99.541" height="47.938" fill="#FFF" style="stroke:#000;stroke-width:0.5;"/><text x="521.39" y="199.559" fill="#000" font-size="12" textLength="79.541" font-family="'Segoe UI'">«subsystem»</text><text x="521.39" y="213.527" fill="#000" font-size="12" textLength="62.238" font-family="'Segoe UI'">Backoffice</text></g><!--entity API--><g class="entity" data-qualified-name="CENTRAL.API" id="ent0012" data-source-line="55"><rect x="240.88" y="300.33" width="108.576" height="47.938" fill="#FFF" style="stroke:#000;stroke-width:0.5;"/><text x="250.88" y="321.469" fill="#000" font-size="12" textLength="79.541" font-family="'Segoe UI'">«subsystem»</text><text x="250.88" y="335.437" fill="#000" font-size="12" textLength="88.576" font-family="'Segoe UI'">Servicios REST</text></g><!--entity FISCA--><g class="entity" data-qualified-name="CENTRAL.FISCA" id="ent0013" data-source-line="56"><rect x="384.39" y="293.34" width="99.541" height="61.906" fill="#FFF" style="stroke:#000;stroke-width:0.5;"/><text x="394.39" y="314.479" fill="#000" font-size="12" textLength="79.541" font-family="'Segoe UI'">«subsystem»</text><text x="394.39" y="328.447" fill="#000" font-size="12" textLength="75.639" font-family="'Segoe UI'">Fiscalizacion</text><text x="394.39" y="342.416" fill="#000" font-size="12" textLength="68.895" font-family="'Segoe UI'">Automatica</text></g><!--entity PUB--><g class="entity" data-qualified-name="PUB" id="ent0001" data-source-line="40"><ellipse cx="146.164" cy="14" rx="8" ry="8" fill="#FFF" style="stroke:#000;stroke-width:0.5;"/><path d="M146.164,22 L146.164,49 M133.164,30 L159.164,30 M146.164,49 L133.164,64 M146.164,49 L159.164,64" style="stroke:#000;stroke-width:0.5;" fill="none"/><text x="95.99" y="76.639" fill="#000" font-size="12" textLength="100.348" font-family="'Segoe UI'">Publico general /</text><text x="95.99" y="90.607" fill="#000" font-size="12" textLength="96.768" font-family="'Segoe UI'">empresa cliente</text></g><!--entity RESP--><g class="entity" data-qualified-name="RESP" id="ent0002" data-source-line="41"><ellipse cx="269.168" cy="14" rx="8" ry="8" fill="#FFF" style="stroke:#000;stroke-width:0.5;"/><path d="M269.168,22 L269.168,49 M256.168,30 L282.168,30 M269.168,49 L256.168,64 M269.168,49 L282.168,64" style="stroke:#000;stroke-width:0.5;" fill="none"/><text x="230.93" y="76.639" fill="#000" font-size="12" textLength="76.477" font-family="'Segoe UI'">Responsable</text><text x="230.93" y="90.607" fill="#000" font-size="12" textLength="71.426" font-family="'Segoe UI'">de empresa</text></g><!--entity FUNC--><g class="entity" data-qualified-name="FUNC" id="ent0003" data-source-line="42"><ellipse cx="377.168" cy="20.98" rx="8" ry="8" fill="#FFF" style="stroke:#000;stroke-width:0.5;"/><path d="M377.168,28.98 L377.168,55.98 M364.168,36.98 L390.168,36.98 M377.168,55.98 L364.168,70.98 M377.168,55.98 L390.168,70.98" style="stroke:#000;stroke-width:0.5;" fill="none"/><text x="342.19" y="83.619" fill="#000" font-size="12" textLength="69.955" font-family="'Segoe UI'">Funcionario</text></g><!--entity AUT--><g class="entity" data-qualified-name="AUT" id="ent0004" data-source-line="43"><ellipse cx="476.168" cy="20.98" rx="8" ry="8" fill="#FFF" style="stroke:#000;stroke-width:0.5;"/><path d="M476.168,28.98 L476.168,55.98 M463.168,36.98 L489.168,36.98 M476.168,55.98 L463.168,70.98 M476.168,55.98 L489.168,70.98" style="stroke:#000;stroke-width:0.5;" fill="none"/><text x="446.81" y="83.619" fill="#000" font-size="12" textLength="58.717" font-family="'Segoe UI'">Autoridad</text></g><!--entity ADM--><g class="entity" data-qualified-name="ADM" id="ent0005" data-source-line="44"><ellipse cx="583.163" cy="20.98" rx="8" ry="8" fill="#FFF" style="stroke:#000;stroke-width:0.5;"/><path d="M583.163,28.98 L583.163,55.98 M570.163,36.98 L596.163,36.98 M583.163,55.98 L570.163,70.98 M583.163,55.98 L596.163,70.98" style="stroke:#000;stroke-width:0.5;" fill="none"/><text x="540.7" y="83.619" fill="#000" font-size="12" textLength="84.926" font-family="'Segoe UI'">Administrador</text></g><!--entity CHOF--><g class="entity" data-qualified-name="CHOF" id="ent0006" data-source-line="45"><ellipse cx="41.164" cy="20.98" rx="8" ry="8" fill="#FFF" style="stroke:#000;stroke-width:0.5;"/><path d="M41.164,28.98 L41.164,55.98 M28.164,36.98 L54.164,36.98 M41.164,55.98 L28.164,70.98 M41.164,55.98 L54.164,70.98" style="stroke:#000;stroke-width:0.5;" fill="none"/><text x="21.23" y="83.619" fill="#000" font-size="12" textLength="39.867" font-family="'Segoe UI'">Chofer</text></g><!--entity MOV--><g class="entity" data-qualified-name="MOV" id="ent0007" data-source-line="48"><rect x="7" y="178.42" width="132.33" height="47.938" fill="#FFF" style="stroke:#000;stroke-width:0.5;"/><text x="17" y="199.559" fill="#000" font-size="12" textLength="79.541" font-family="'Segoe UI'">«subsystem»</text><text x="17" y="213.527" fill="#000" font-size="12" textLength="112.33" font-family="'Segoe UI'">Componente Movil</text></g><!--entity NBAL--><g class="entity" data-qualified-name="NBAL" id="ent0014" data-source-line="60"><rect x="660.27" y="18.52" width="111.793" height="61.906" fill="#FFF" style="stroke:#000;stroke-width:0.5;"/><text x="670.27" y="39.659" fill="#000" font-size="12" textLength="79.541" font-family="'Segoe UI'">«subsystem»</text><text x="670.27" y="53.627" fill="#000" font-size="12" textLength="91.793" font-family="'Segoe UI'">Nodo Periferico</text><text x="670.27" y="67.596" fill="#000" font-size="12" textLength="53.783" font-family="'Segoe UI'">Balanzas</text></g><!--entity NTRK--><g class="entity" data-qualified-name="NTRK" id="ent0015" data-source-line="61"><rect x="807.27" y="18.52" width="111.793" height="61.906" fill="#FFF" style="stroke:#000;stroke-width:0.5;"/><text x="817.27" y="39.659" fill="#000" font-size="12" textLength="79.541" font-family="'Segoe UI'">«subsystem»</text><text x="817.27" y="53.627" fill="#000" font-size="12" textLength="91.793" font-family="'Segoe UI'">Nodo Periferico</text><text x="817.27" y="67.596" fill="#000" font-size="12" textLength="51.721" font-family="'Segoe UI'">Tracking</text></g><!--entity SPDI--><g class="entity" data-qualified-name="SPDI" id="ent0016" data-source-line="62"><rect x="953.84" y="25.5" width="104.656" height="47.938" fill="#FFF" style="stroke:#000;stroke-width:0.5;"/><text x="963.84" y="46.639" fill="#000" font-size="12" textLength="79.541" font-family="'Segoe UI'">«subsystem»</text><text x="963.84" y="60.607" fill="#000" font-size="12" textLength="84.656" font-family="'Segoe UI'">Simulador PDI</text></g><!--entity GUB--><g class="entity" data-qualified-name="GUB" id="ent0017" data-source-line="63"><rect x="1093.78" y="25.5" width="110.779" height="47.938" fill="#FFF" style="stroke:#000;stroke-width:0.5;"/><text x="1103.78" y="46.639" fill="#000" font-size="12" textLength="45.615" font-family="'Segoe UI'">«actor»</text><text x="1103.78" y="60.607" fill="#000" font-size="12" textLength="90.779" font-family="'Segoe UI'">Usuario gub.uy</text></g><!--link FOCIU to FOFUN--><!--link FOFUN to BACK--><!--link FOCIU to API--><!--link API to FISCA--><!--link PUB to FOCIU--><g class="link" data-entity-1="ent0001" data-entity-2="ent0009" id="lnk22" data-source-line="72" data-link-type="dependency"><path d="M187.72,93.72 C211.48,118.45 237.246,145.274 258.566,167.464" style="stroke:#000;stroke-width:1;" fill="none" id="PUB-to-FOCIU"/><polygon points="262.03,171.07,258.679,161.809,258.566,167.464,252.91,167.351,262.03,171.07" fill="#000" style="stroke:#000;stroke-width:1;stroke-linejoin:miter;stroke-miterlimit:10;"/></g><!--link RESP to FOCIU--><g class="link" data-entity-1="ent0002" data-entity-2="ent0009" id="lnk23" data-source-line="73" data-link-type="dependency"><path d="M275.47,93.72 C279.08,118.45 282.79,143.932 286.02,166.122" style="stroke:#000;stroke-width:1;" fill="none" id="RESP-to-FOCIU"/><polygon points="286.74,171.07,289.402,161.588,286.02,166.122,281.485,162.74,286.74,171.07" fill="#000" style="stroke:#000;stroke-width:1;stroke-linejoin:miter;stroke-miterlimit:10;"/></g><!--link FUNC to FOFUN--><g class="link" data-entity-1="ent0003" data-entity-2="ent0010" id="lnk24" data-source-line="74" data-link-type="dependency"><path d="M388.9,86.62 C397.28,112.43 406.886,142.004 414.796,166.374" style="stroke:#000;stroke-width:1;" fill="none" id="FUNC-to-FOFUN"/><polygon points="416.34,171.13,417.366,161.335,414.796,166.374,409.757,163.805,416.34,171.13" fill="#000" style="stroke:#000;stroke-width:1;stroke-linejoin:miter;stroke-miterlimit:10;"/></g><!--link AUT to BACK--><g class="link" data-entity-1="ent0004" data-entity-2="ent0011" id="lnk25" data-source-line="75" data-link-type="dependency"><path d="M496.52,86.62 C512.54,115.05 531.906,149.444 545.656,173.854" style="stroke:#000;stroke-width:1;" fill="none" id="AUT-to-BACK"/><polygon points="548.11,178.21,547.178,168.405,545.656,173.854,540.208,172.332,548.11,178.21" fill="#000" style="stroke:#000;stroke-width:1;stroke-linejoin:miter;stroke-miterlimit:10;"/></g><!--link ADM to BACK--><g class="link" data-entity-1="ent0005" data-entity-2="ent0011" id="lnk26" data-source-line="76" data-link-type="dependency"><path d="M577.9,86.62 C573.75,115.05 568.822,148.852 565.262,173.262" style="stroke:#000;stroke-width:1;" fill="none" id="ADM-to-BACK"/><polygon points="564.54,178.21,569.797,169.881,565.262,173.262,561.881,168.727,564.54,178.21" fill="#000" style="stroke:#000;stroke-width:1;stroke-linejoin:miter;stroke-miterlimit:10;"/></g><!--link CHOF to MOV--><g class="link" data-entity-1="ent0006" data-entity-2="ent0007" id="lnk27" data-source-line="77" data-link-type="dependency"><path d="M48.83,86.62 C54.86,115.05 62.044,148.909 67.214,173.319" style="stroke:#000;stroke-width:1;" fill="none" id="CHOF-to-MOV"/><polygon points="68.25,178.21,70.298,168.577,67.214,173.319,62.472,170.234,68.25,178.21" fill="#000" style="stroke:#000;stroke-width:1;stroke-linejoin:miter;stroke-miterlimit:10;"/></g><!--link MOV to API--><g class="link" data-entity-1="ent0007" data-entity-2="ent0012" id="lnk28" data-source-line="79" data-link-type="dependency"><path d="M116.5,226.79 C155.61,247.92 208.461,276.464 247.541,297.574" style="stroke:#000;stroke-width:1;" fill="none" id="MOV-to-API"/><polygon points="251.94,299.95,245.922,292.153,247.541,297.574,242.12,299.192,251.94,299.95" fill="#000" style="stroke:#000;stroke-width:1;stroke-linejoin:miter;stroke-miterlimit:10;"/></g><!--link NBAL to CENTRAL--><g class="link" data-entity-1="ent0014" data-entity-2="ent0008" id="lnk29" data-source-line="81" data-link-type="dependency"><path d="M702.17,80.65 C692.115,102.325 678.39,131.913 667.044,156.373 C664.207,162.488 661.519,168.282 659.075,173.552 C657.852,176.188 656.691,178.692 655.602,181.039 C655.329,181.626 655.062,182.203 654.799,182.77 C654.667,183.054 654.537,183.335 654.408,183.613 C654.343,183.752 656.383,179.355 656.319,179.493" style="stroke:#000;stroke-width:1;" fill="none" id="NBAL-to-CENTRAL"/><polygon points="654.215,184.028,661.631,177.547,656.319,179.493,654.374,174.181,654.215,184.028" fill="#000" style="stroke:#000;stroke-width:1;stroke-linejoin:miter;stroke-miterlimit:10;"/></g><!--link NTRK to CENTRAL--><g class="link" data-entity-1="ent0015" data-entity-2="ent0008" id="lnk30" data-source-line="82" data-link-type="dependency"><path d="M819.51,80.83 C788.325,102.52 745.845,132.065 710.744,156.479 C693.193,168.686 677.487,179.61 665.96,187.628 C663.078,189.632 660.458,191.455 658.135,193.071 C656.973,193.879 655.886,194.635 654.878,195.336 C654.752,195.424 658.732,192.655 658.609,192.741" style="stroke:#000;stroke-width:1;" fill="none" id="NTRK-to-CENTRAL"/><polygon points="654.504,195.597,664.176,193.741,658.609,192.741,659.608,187.173,654.504,195.597" fill="#000" style="stroke:#000;stroke-width:1;stroke-linejoin:miter;stroke-miterlimit:10;"/></g><!--link SPDI to CENTRAL--><g class="link" data-entity-1="ent0016" data-entity-2="ent0008" id="lnk31" data-source-line="83" data-link-type="dependency"><path d="M970.95,73.92 C960.05,80.68 947.83,87.75 936.17,93.44 C875.32,123.09 804.115,149.705 747.49,169.09 C719.178,178.782 694.51,186.668 676.604,192.221 C667.652,194.997 660.389,197.191 655.207,198.736 C654.883,198.832 659.36,197.501 659.052,197.592" style="stroke:#000;stroke-width:1;" fill="none" id="SPDI-to-CENTRAL"/><polygon points="654.26,199.018,664.027,200.286,659.052,197.592,661.746,192.618,654.26,199.018" fill="#000" style="stroke:#000;stroke-width:1;stroke-linejoin:miter;stroke-miterlimit:10;"/></g><!--link GUB to CENTRAL--><g class="link" data-entity-1="ent0017" data-entity-2="ent0008" id="lnk32" data-source-line="84" data-link-type="dependency"><path d="M1114.2,73.79 C1102.48,80.86 1089.09,88.14 1076.17,93.44 C985.72,130.51 879.185,157.368 794.785,175.021 C752.585,183.848 715.919,190.374 689.564,194.725 C676.386,196.901 665.787,198.533 658.362,199.636 C657.434,199.774 656.555,199.904 655.728,200.026 C655.314,200.086 659.86,199.423 659.472,199.48" style="stroke:#000;stroke-width:1;" fill="none" id="GUB-to-CENTRAL"/><polygon points="654.524,200.202,664.007,202.861,659.472,199.48,662.853,194.944,654.524,200.202" fill="#000" style="stroke:#000;stroke-width:1;stroke-linejoin:miter;stroke-miterlimit:10;"/></g><?plantuml-src hLRVJoCt47xFNp5A7m29v21mL49Nf2KG6Xs4A9jS7qeVlBlEuh9hv-nTJb3rV-zdUvDiaaledR0WYZqpdyVpuvliKUlzLcEFOgPJrYvVg4LVX2aOtQfKnEoG0lsr50MFYr8pkk6IQvPHmZCAeSPp1jjR5YdD2gM5ed5uJPsZpXbmmk2A38zZeIITjOzfloTI2t9wqDYpLigGAIFZOOp3Z5K-KvBBWbECJtkLOHcN45B6AApGElJYJfG1JY6A4j_ML4wgVSQ1SWureXFuq1LbmX8ceT-YdbQoKDEfY3djpyee4x4w87gWKk8FcnMDfMc5rjcELbiVAksJLUtkygLtwbbaS_NM1KrBnDY7myUWGZYbNYdjunW2lVr68DG5TPiAw2FrX8bP9bwPYrLG5Yfd1T9TTzm1RT6hWCxSaHPu5ZV8IP3aGYAVcYLAuwJbzEowPF7JPcpM5YvSH7vfS4WpfKah7uRHe4UdxUDsvvmGeDo5BbRIb3cdFtY4_Ejd61aQNOVZrI327b5NX792OSoBiQgJMSPa8RACdPCHadWXlfQyS6L9CwqA5QjC7LgPRHQLMozzL2oyXJ3eeR_nAP1JBPcDXqKISgePHqnAtqBxaLPFN1y2PiQrgtuaY45RHGREiqXaDg3qp2msEgVJEaFkNog_vntrwq4R4Ez90Wtp9EICQPPJXEYdMfKowUBPcdxfkLNJC8_8yJSXKvgopF2Q9E5JLcP53oKuOCXAC-IfuZJfDx-l58fNJiUTcj1T72iDhg6ZsdcWjVfMENJarhhGucrJqE0m9jECqpyDNv3VUo4aIYTShw8GRIB_MyDcCThWtN2Hrz-sBtyPAdo7JiCxr1nwKgEqukqF3vBdCnWpYZDXsQT9gDJXv79kCU86l6HObF47YTglr9qQMceurwlHYfFr9eFkNBOW1IS99kE5eCuFNdXrDnTs7zMK-zFkx_Uzjw9G6nMU1NQ5OvdxvgTFTkYysA5pSV4WrtdOtNzt_-K7hfzFgfzpO1F8X-1wC1u5jwwcjXlNY1vFMSmNdv7xRd_o_wthSwAoHqvtsYyvsXbS1jtFE_KzDzlPPSdPvt_Ot-rYVG0zoEK4yYxsmsxmTiFKVsM0SmNA34rXVZ9X0vKe6YvWR1WmErwPZzhWChZz4UEnHX11ezvuFFgympWKUPdPrg7XLTyPXFYoQk2QoIfFJ6bpIMaPuMUTqxv1coDKgRPp3XICQbCh8zAL3BN-V1G9f7zfaJuMhQeGtEU6pELypGnpGRPSPl6_YUPozXR56OMPQ7F-1i-1kJ03BwfYjmHLsrfEghRs1I0YjtC-WtYM6yitRkSQ7nzkOr_GiFbqkweX6pP7AmSs1oi7DvLFrVu_?></g></svg>